<svg width="564" height="723" viewBox="0 0 564 723" fill="none" xmlns="http://www.w3.org/2000/svg">
<path d="M202.371 179.053H139.479C103.541 -68.2075 467.416 -51.0066 426.985 179.053H361.847C400.032 17.7933 164.187 17.7933 202.371 179.053Z" fill="white" style="fill:white;fill-opacity:1;"/>
<path d="M310.186 234.945C348.37 215.442 484.485 164.795 550.523 277.946C442.708 346.746 449.447 480.048 564 542.398C551.717 620.689 471.908 723 411.262 723C411.262 723 386.555 723 350.617 707.95C314.678 692.9 294.463 695.05 294.463 695.05C294.463 695.05 270.879 692.9 240.556 707.95C210.233 723 166.433 716.55 166.433 716.55C47.3876 684.3 -27.0056 472.357 9.20334 338.146C31.5156 255.445 114.772 206.995 175.418 209.145C236.064 211.295 272.003 254.449 310.186 234.945Z" fill="white" style="fill:white;fill-opacity:1;"/>
</svg>
