<svg width="531" height="531" viewBox="0 0 531 531" fill="none" xmlns="http://www.w3.org/2000/svg">
<path d="M433.367 342.817C440.891 346.285 449.858 343.014 452.753 335.252C460.159 315.396 464.373 294.457 465.208 273.217C466.239 246.973 462.092 220.783 453.002 196.142C443.911 171.501 430.057 148.891 412.229 129.604C397.8 113.995 380.998 100.81 362.471 90.5197C355.229 86.4973 346.285 89.8336 342.817 97.3569V97.3569C339.348 104.88 342.676 113.734 349.864 117.852C364.839 126.43 378.445 137.253 390.199 149.968C405.353 166.362 417.129 185.58 424.856 206.525C432.582 227.47 436.108 249.732 435.231 272.039C434.551 289.341 431.233 306.408 425.417 322.655C422.625 330.455 425.844 339.348 433.367 342.817V342.817Z" fill="white" style="fill:white;fill-opacity:1;"/>
<path d="M374.339 315.603C381.026 318.686 389.015 315.78 391.415 308.818C395.655 296.52 398.08 283.645 398.593 270.599C399.28 253.103 396.515 235.643 390.455 219.215C384.395 202.788 375.159 187.715 363.273 174.857C354.411 165.269 344.205 157.054 332.995 150.455C326.649 146.72 318.686 149.698 315.603 156.386V156.386C312.52 163.073 315.499 170.925 321.749 174.818C329.824 179.846 337.207 185.943 343.691 192.958C353.199 203.244 360.588 215.303 365.436 228.445C370.285 241.587 372.497 255.555 371.946 269.552C371.571 279.097 369.917 288.527 367.042 297.595C364.817 304.615 367.651 312.52 374.339 315.603V315.603Z" fill="white" style="fill:white;fill-opacity:1;"/>
<path d="M316.823 289.087C321.839 291.399 327.859 289.218 329.396 283.913C330.895 278.738 331.765 273.389 331.977 267.981C332.321 259.233 330.939 250.502 327.909 242.289C324.879 234.075 320.26 226.538 314.318 220.11C310.644 216.135 306.508 212.632 302.008 209.671C297.394 206.635 291.399 208.886 289.087 213.901V213.901C286.775 218.917 289.056 224.781 293.466 228.107C295.677 229.775 297.741 231.641 299.631 233.685C303.791 238.186 307.024 243.461 309.145 249.211C311.266 254.96 312.234 261.071 311.993 267.195C311.883 269.977 311.526 272.736 310.927 275.441C309.735 280.834 311.808 286.775 316.823 289.087V289.087Z" fill="white" style="fill:white;fill-opacity:1;"/>
</svg>
